<svg xmlns="http://www.w3.org/2000/svg" viewBox="0 0 1920 1080" preserveAspectRatio="xMidYMid slice">
  <rect width="1920" height="1080" fill="#efefef"/>
  <path d="M1000 85 C1008 55, 1040 35, 1070 32 L1250 16 C1292 12, 1328 48, 1314 88 L1182 555 C1170 601, 1118 616, 1090 578 C1076 558, 1066 528, 1061 500 L1000 85 Z" fill="#496BE6"/>
  <path d="M1420 36 C1396 34, 1372 49, 1362 77 L1070 1000 C1056 1047, 1090 1084, 1138 1084 L1810 1084 C1855 1084, 1888 1050, 1888 1006 L1888 205 C1888 165, 1860 132, 1820 123 L1420 36 Z" fill="#AFE8A8"/>
  <g opacity="0.95">
    <path d="M48 925 C168 850, 258 826, 304 843 C332 853, 336 892, 331 936 C318 1034, 272 1136, 230 1212 C198 1270, 144 1284, 98 1246 C40 1198, -10 1118, -38 1030 C-54 980, -5 958, 48 925 Z" fill="#2F45FF"/>
    <path d="M35 920 C155 845, 245 821, 291 838 C319 848, 323 887, 318 931 C305 1028, 260 1129, 217 1205 C186 1263, 131 1277, 86 1240 C28 1192, -22 1112, -50 1024 C-66 974, -17 953, 35 920 Z" fill="#efefef"/>
  </g>
</svg>
